<?xml version="1.0" standalone="no"?>
<!DOCTYPE svg PUBLIC "-//W3C//DTD SVG 20010904//EN"
 "http://www.w3.org/TR/2001/REC-SVG-20010904/DTD/svg10.dtd">
<svg version="1.0" xmlns="http://www.w3.org/2000/svg"
 width="2000.000000pt" height="2000.000000pt" viewBox="0 0 2000.000000 2000.000000"
 preserveAspectRatio="xMidYMid meet">

<g transform="translate(0.000000,2000.000000) scale(0.100000,-0.100000)"
fill="#000000" stroke="none">
<path d="M0 10000 l0 -10000 10000 0 10000 0 0 10000 0 10000 -10000 0 -10000
0 0 -10000z m17200 7029 c3 -1 8 -1 13 0 4 0 7 -4 7 -11 0 -6 3 -9 6 -5 7 7
50 -35 47 -45 -2 -5 2 -8 8 -8 5 0 7 -4 4 -10 -3 -5 -1 -10 5 -10 6 0 9 -4 5
-9 -3 -5 -1 -12 5 -16 6 -4 8 -11 5 -16 -4 -5 -3 -15 2 -21 4 -7 9 -26 11 -43
3 -16 7 -2795 9 -6175 3 -3380 7 -6183 9 -6230 3 -47 6 -107 7 -135 1 -27 6
-56 10 -63 5 -7 6 -25 2 -41 -4 -17 -2 -32 5 -36 7 -4 9 -19 5 -35 -3 -16 -2
-31 4 -35 6 -3 8 -17 5 -30 -3 -12 -1 -26 6 -30 6 -4 8 -15 5 -25 -3 -10 -1
-21 5 -25 6 -4 8 -15 5 -26 -4 -11 -2 -19 5 -19 7 0 9 -8 5 -20 -4 -12 -2 -20
5 -20 7 0 9 -8 5 -20 -4 -12 -2 -20 5 -20 7 0 10 -7 7 -15 -4 -8 -2 -17 4 -20
5 -4 7 -10 4 -15 -3 -5 -1 -11 4 -15 6 -3 8 -12 4 -20 -3 -8 0 -15 7 -15 6 0
9 -4 5 -9 -3 -5 -1 -12 5 -16 6 -4 8 -11 5 -16 -4 -5 -1 -9 5 -9 7 0 10 -7 6
-15 -3 -8 -1 -15 5 -15 6 0 8 -4 4 -9 -3 -5 -1 -12 5 -16 6 -4 8 -11 5 -16 -4
-5 -1 -9 5 -9 6 0 8 -4 5 -10 -3 -5 -1 -10 5 -10 6 0 8 -4 5 -10 -3 -5 -1 -10
5 -10 6 0 8 -4 5 -10 -3 -5 -1 -10 5 -10 6 0 8 -4 5 -10 -3 -5 -1 -10 5 -10 6
0 8 -4 5 -10 -3 -5 -1 -10 5 -10 6 0 8 -5 5 -10 -3 -6 -1 -10 5 -10 6 0 9 -4
6 -9 -3 -5 1 -12 10 -15 8 -3 12 -10 9 -16 -3 -5 -1 -10 5 -10 6 0 8 -5 5 -10
-3 -6 1 -13 9 -16 9 -3 14 -10 11 -15 -3 -4 4 -13 15 -19 11 -6 18 -15 15 -21
-4 -5 1 -12 9 -15 9 -3 14 -10 11 -14 -3 -5 5 -16 17 -25 13 -8 23 -19 23 -24
0 -5 21 -28 48 -51 26 -23 47 -45 47 -48 0 -4 -1028 -7 -2285 -7 -1257 0
-2285 3 -2285 7 0 3 18 20 40 38 22 17 39 35 37 40 -1 5 12 21 28 35 17 15 23
24 15 20 -8 -4 -6 1 5 10 11 9 19 20 18 25 -2 5 6 14 17 20 11 6 18 15 15 21
-4 5 1 12 9 15 9 3 14 10 11 14 -3 4 2 11 11 14 8 3 12 10 9 16 -3 5 -1 10 5
10 6 0 8 5 5 10 -3 6 -1 10 4 10 6 0 11 7 11 15 0 8 5 15 11 15 5 0 7 5 4 10
-3 6 -1 10 5 10 6 0 8 5 5 10 -3 6 -1 10 5 10 6 0 8 5 5 10 -3 6 -1 10 5 10 6
0 9 4 5 9 -3 5 -1 12 5 16 6 4 8 11 5 16 -4 5 -1 9 5 9 6 0 8 5 5 10 -3 6 -1
10 5 10 6 0 9 4 5 9 -3 5 -1 12 5 16 6 4 8 11 5 16 -4 5 -1 9 5 9 7 0 10 7 6
15 -3 8 -1 15 4 15 5 0 7 7 4 15 -4 8 -1 15 5 15 6 0 8 7 5 15 -4 8 -1 15 6
15 7 0 10 7 7 15 -4 8 -2 17 4 20 5 4 7 10 4 15 -3 5 0 12 6 15 5 4 8 13 5 21
-3 7 -1 16 5 20 6 3 8 12 5 20 -3 7 -1 16 5 20 5 3 7 14 4 24 -3 10 -1 21 5
25 6 4 8 15 5 25 -3 10 -1 21 5 25 7 4 9 18 6 30 -3 13 -1 27 5 30 6 4 8 18 4
32 -3 14 -1 31 6 39 6 8 8 25 5 39 -4 14 -3 31 1 38 8 12 10 37 16 192 3 71 6
10171 3 10285 -1 25 -4 50 -9 57 -4 6 -4 18 -1 27 3 9 1 23 -6 31 -6 8 -9 19
-6 24 4 5 2 12 -3 16 -6 3 -8 12 -4 20 3 8 0 15 -7 15 -7 0 -10 7 -6 15 3 8 1
15 -5 15 -6 0 -7 5 -4 10 3 6 1 10 -5 10 -6 0 -8 5 -5 10 3 6 1 10 -5 10 -6 0
-9 4 -6 9 3 5 -1 12 -9 15 -8 3 -14 9 -13 13 3 11 -60 72 -66 65 -3 -3 -8 3
-12 12 -3 9 -10 13 -15 10 -5 -3 -9 0 -9 6 0 6 -4 8 -10 5 -5 -3 -10 -1 -10 5
0 6 -4 8 -10 5 -5 -3 -10 -1 -10 5 0 6 -4 8 -10 5 -5 -3 -10 -1 -10 5 0 6 -4
8 -10 5 -5 -3 -10 -1 -10 4 0 6 -7 11 -15 11 -8 0 -15 5 -15 11 0 5 -4 8 -9 5
-5 -3 -12 1 -15 10 -4 9 -9 14 -13 11 -3 -4 -12 1 -20 11 -9 10 -12 11 -7 2 4
-8 -7 -2 -24 14 -17 16 -29 33 -26 38 3 4 -2 11 -10 14 -9 3 -13 10 -10 15 3
5 1 9 -3 9 -7 0 -9 81 -2 100 1 3 1 8 0 13 0 4 4 7 11 7 6 0 8 3 5 7 -9 9 44
64 55 57 4 -3 8 0 8 6 0 6 5 8 10 5 6 -3 10 -1 10 5 0 6 4 9 9 5 5 -3 13 0 16
6 4 5 13 8 21 5 7 -3 16 0 20 5 3 6 17 8 29 5 13 -3 27 -1 30 5 4 6 19 7 35 4
16 -4 31 -2 35 5 4 7 19 9 35 5 16 -4 31 -2 35 5 4 6 15 8 25 5 10 -3 21 -1
25 5 4 7 18 9 30 6 13 -3 27 -1 30 4 4 6 15 8 25 5 10 -3 21 -1 25 5 4 6 13 9
21 6 7 -3 16 -1 20 5 3 5 14 7 24 4 10 -3 21 -1 24 4 4 6 13 8 20 5 8 -3 17 0
21 6 4 6 15 8 26 5 11 -4 19 -2 19 5 0 7 8 9 20 5 12 -4 20 -2 20 5 0 7 8 9
20 5 12 -4 20 -2 20 5 0 7 8 9 20 5 12 -4 20 -2 20 5 0 7 7 10 15 7 8 -4 17
-2 20 3 3 5 12 7 20 3 8 -3 15 0 15 7 0 7 7 10 15 7 8 -4 17 -2 20 3 3 5 12 7
20 3 8 -3 15 0 15 6 0 6 7 8 15 5 8 -4 15 -1 15 6 0 7 7 10 15 7 8 -4 17 -2
20 4 4 5 10 7 15 4 5 -3 11 -1 15 4 3 6 12 8 20 4 8 -3 15 0 15 7 0 7 7 10 15
6 8 -3 15 -1 15 5 0 6 7 9 15 5 8 -3 15 -1 15 5 0 6 7 9 15 5 8 -3 15 -1 15 4
0 5 7 7 15 4 8 -4 15 -1 15 5 0 6 7 8 15 5 8 -4 15 -1 15 5 0 6 7 8 15 5 8 -4
15 -1 15 6 0 6 4 9 9 5 5 -3 12 -1 16 5 4 6 11 8 16 5 5 -4 9 -1 9 5 0 7 7 10
15 6 8 -3 15 -1 15 4 0 5 7 7 15 4 8 -4 15 -1 15 6 0 6 4 9 9 5 5 -3 12 -1 16
5 4 6 11 8 16 5 5 -4 9 -1 9 5 0 7 7 10 15 6 8 -3 15 -1 15 5 0 6 4 8 9 4 5
-3 12 -1 16 5 4 6 11 8 16 5 5 -4 9 -1 9 5 0 7 7 10 15 6 8 -3 15 -1 15 5 0 6
4 8 9 4 5 -3 12 -1 16 5 4 6 11 8 16 5 5 -4 9 -1 9 5 0 6 4 9 9 5 5 -3 12 -1
16 5 4 6 11 8 16 5 5 -4 9 -1 9 5 0 6 4 9 9 5 5 -3 12 -1 16 5 4 6 11 8 16 5
5 -4 9 -1 9 5 0 6 4 9 9 5 5 -3 12 -1 16 5 4 6 11 8 16 5 5 -4 9 -1 9 5 0 6 5
8 10 5 6 -3 10 -1 10 5 0 6 4 9 9 5 5 -3 12 -1 16 5 4 6 11 8 16 5 5 -4 9 -1
9 5 0 6 5 8 10 5 6 -3 10 -1 10 5 0 6 4 9 9 5 5 -3 12 -1 16 5 4 6 11 8 16 5
5 -4 9 -1 9 5 0 6 5 8 10 5 6 -3 10 -1 10 5 0 6 5 8 10 5 6 -3 10 -1 10 5 0 6
4 9 9 5 5 -3 12 -1 16 5 4 6 11 8 16 5 5 -4 9 -1 9 5 0 6 5 8 10 5 6 -3 10 -1
10 5 0 6 5 8 10 5 6 -3 10 -1 10 5 0 6 5 8 10 5 6 -3 10 -1 10 5 0 6 4 9 9 5
5 -3 12 -1 16 5 4 6 11 8 16 5 5 -4 9 -1 9 5 0 6 5 8 10 5 6 -3 10 -1 10 5 0
6 5 8 10 5 6 -3 10 -1 10 5 0 6 5 8 10 5 6 -3 10 -1 10 5 0 6 5 8 10 5 6 -3
10 -1 10 5 0 6 5 8 10 5 6 -3 10 -1 10 6 0 7 3 9 7 6 3 -4 25 4 48 18 23 13
45 21 49 18 3 -3 6 -1 6 6 0 7 5 9 10 6 6 -3 10 -1 10 5 0 6 5 8 10 5 6 -3 10
-1 10 5 0 6 5 8 10 5 6 -3 10 -1 10 5 0 6 5 8 10 5 6 -3 10 -1 10 5 0 6 5 8
10 5 6 -3 10 -1 10 5 0 6 5 8 10 5 6 -3 10 -1 10 5 0 6 5 8 10 5 6 -3 10 -1
10 5 0 6 5 8 10 5 6 -3 10 -1 10 5 0 6 5 8 10 5 6 -3 10 -1 10 5 0 6 5 8 10 5
6 -3 10 -1 10 5 0 6 5 8 10 5 6 -3 10 -1 10 5 0 6 5 8 10 5 6 -3 10 -1 10 5 0
6 5 8 10 5 6 -3 10 -1 10 5 0 6 5 8 10 5 6 -3 10 -1 10 5 0 6 5 8 10 5 6 -3
10 -1 10 5 0 6 5 8 10 5 6 -3 10 -2 10 4 0 5 16 15 35 21 19 6 35 16 35 21 0
6 5 7 10 4 6 -3 10 -1 10 5 0 6 5 8 10 5 6 -3 10 -1 10 5 0 6 5 8 10 5 6 -3
10 -1 10 5 0 6 5 8 10 5 6 -3 10 -1 10 5 0 6 5 8 10 5 6 -3 10 -1 10 5 0 6 5
8 10 5 6 -3 10 -1 10 5 0 6 5 8 10 5 6 -3 10 -1 10 4 0 6 7 11 15 11 8 0 15 5
15 11 0 5 5 7 10 4 6 -3 10 -1 10 5 0 6 5 8 10 5 6 -3 10 -1 10 5 0 6 5 8 10
5 6 -3 10 -1 10 5 0 6 5 8 10 5 6 -3 10 -1 10 5 0 6 5 8 10 5 6 -3 10 -1 10 5
0 6 5 8 10 5 6 -3 13 1 16 9 3 9 10 13 15 10 5 -3 9 0 9 6 0 6 5 8 10 5 6 -3
10 -1 10 5 0 6 5 8 10 5 6 -3 10 -1 10 5 0 6 5 8 10 5 6 -3 13 1 16 9 3 9 10
13 15 10 5 -3 9 0 9 6 0 6 5 8 10 5 6 -3 10 -1 10 5 0 6 5 8 10 5 6 -3 10 -1
10 5 0 6 5 8 10 5 6 -3 13 1 16 9 3 9 10 13 15 10 5 -3 9 0 9 6 0 6 5 8 10 5
6 -3 10 -1 10 5 0 6 5 8 10 5 6 -3 10 -1 10 5 0 6 5 8 10 5 6 -3 10 -1 10 5 0
6 5 8 10 5 6 -3 10 -1 10 4 0 6 7 11 15 11 8 0 15 5 15 11 0 5 5 7 10 4 6 -3
10 -1 10 5 0 6 5 8 10 5 6 -3 10 -1 10 5 0 6 5 8 10 5 6 -3 10 -1 10 5 0 6 4
9 9 6 5 -3 12 1 15 10 3 8 10 12 16 9 5 -3 10 -1 10 5 0 6 5 8 10 5 6 -3 10
-1 10 5 0 6 5 8 10 5 6 -3 10 -1 10 5 0 6 5 8 10 5 6 -3 10 -1 10 4 0 6 7 11
15 11 8 0 15 5 15 11 0 5 5 7 10 4 6 -3 10 -1 10 5 0 6 5 8 10 5 6 -3 10 -1
10 5 0 6 5 8 10 5 6 -3 10 -1 10 5 0 6 5 8 10 5 6 -3 10 -1 10 5 0 6 5 8 10 5
6 -3 10 -1 10 5 0 6 5 8 10 5 6 -3 10 -1 10 5 0 6 5 8 10 5 6 -3 10 -1 10 5 0
6 5 8 10 5 6 -3 10 -1 10 5 0 6 5 8 10 5 6 -3 10 -1 10 5 0 6 5 8 10 5 6 -3
10 -1 10 5 0 6 5 8 10 5 6 -3 10 -1 10 5 0 6 5 8 10 5 6 -3 10 -1 10 5 0 6 5
8 10 5 6 -3 10 -1 10 5 0 6 5 8 10 5 6 -3 10 -1 10 5 0 6 4 9 9 5 5 -3 12 -1
16 5 4 6 11 8 16 5 5 -4 9 -1 9 5 0 7 7 10 15 7 8 -4 17 -3 19 2 4 6 78 7 96
0z m-9734 -200 c4 -7 21 -9 45 -5 23 4 40 2 44 -5 4 -6 18 -8 30 -5 13 3 27 2
30 -4 3 -6 17 -7 31 -4 15 4 24 2 24 -6 0 -7 8 -9 20 -5 11 4 20 2 20 -4 0 -6
7 -8 15 -5 8 4 15 1 15 -6 0 -7 7 -10 15 -6 8 3 15 1 15 -5 0 -6 7 -9 15 -5 8
3 15 1 15 -5 0 -6 7 -9 15 -5 8 3 15 1 15 -5 0 -6 4 -8 9 -4 5 3 12 1 16 -5 4
-6 11 -8 16 -5 5 4 9 1 9 -5 0 -6 5 -8 10 -5 6 3 10 1 10 -5 0 -6 5 -8 10 -5
6 3 10 1 10 -5 0 -6 5 -8 10 -5 6 3 10 1 10 -5 0 -6 5 -8 10 -5 6 3 10 1 10
-5 0 -6 4 -9 9 -6 5 3 12 -1 15 -10 3 -8 10 -12 16 -9 5 3 10 1 10 -5 0 -6 4
-9 9 -6 5 3 12 -1 15 -10 3 -8 10 -13 15 -10 5 3 12 -1 15 -10 3 -8 10 -13 15
-9 6 3 15 -4 21 -15 6 -11 14 -19 18 -18 9 3 177 -165 174 -174 -1 -4 7 -12
18 -18 11 -6 18 -15 15 -21 -4 -5 1 -12 9 -15 9 -3 14 -10 11 -15 -3 -4 4 -13
15 -19 11 -6 18 -15 15 -21 -4 -5 -1 -9 5 -9 6 0 9 -4 6 -9 -3 -5 1 -12 10
-15 8 -3 12 -10 9 -16 -3 -5 -1 -10 5 -10 6 0 8 -4 5 -10 -3 -5 -1 -10 5 -10
6 0 9 -4 5 -9 -3 -6 3 -14 12 -20 10 -6 15 -11 10 -11 -4 0 -1 -10 8 -23 8
-13 12 -27 8 -30 -3 -4 -1 -7 6 -7 7 0 9 -4 6 -10 -3 -5 -1 -10 5 -10 6 0 8
-4 5 -10 -3 -5 -1 -10 5 -10 6 0 9 -4 5 -9 -3 -5 -1 -12 5 -16 6 -4 8 -11 5
-16 -4 -5 -1 -9 5 -9 6 0 9 -4 5 -9 -3 -5 -1 -12 5 -16 6 -4 8 -10 5 -15 -3
-5 -1 -11 5 -15 6 -4 8 -11 5 -16 -4 -5 -1 -9 5 -9 7 0 10 -7 6 -15 -3 -8 -1
-15 5 -15 6 0 9 -7 6 -15 -4 -8 -2 -17 3 -20 5 -3 7 -12 3 -20 -3 -8 0 -15 7
-15 7 0 9 -8 5 -20 -4 -12 -2 -20 5 -20 7 0 9 -8 5 -20 -4 -12 -2 -20 5 -20 7
0 9 -8 5 -19 -3 -11 -1 -22 5 -26 6 -4 8 -15 5 -25 -3 -10 -1 -21 5 -25 6 -4
8 -15 5 -26 -4 -10 -3 -24 2 -31 8 -13 13 -50 14 -103 0 -16 3 -37 6 -45 14
-34 20 -352 9 -495 -3 -44 -7 -98 -9 -120 -2 -22 -6 -47 -9 -55 -4 -8 -7 -31
-7 -50 -1 -68 -3 -85 -12 -96 -5 -6 -7 -19 -3 -28 3 -9 1 -23 -6 -31 -6 -8 -9
-23 -5 -34 3 -10 1 -22 -5 -26 -6 -4 -8 -15 -5 -25 3 -10 1 -21 -5 -25 -6 -4
-8 -15 -5 -26 4 -11 2 -19 -5 -19 -7 0 -9 -7 -6 -16 4 -9 1 -23 -5 -30 -6 -7
-8 -18 -5 -23 4 -5 1 -13 -5 -16 -5 -4 -8 -13 -5 -21 3 -7 1 -16 -5 -20 -6 -3
-8 -12 -5 -20 3 -7 1 -16 -5 -20 -5 -3 -7 -14 -4 -25 4 -11 2 -19 -5 -19 -7 0
-10 -7 -6 -15 3 -8 1 -15 -5 -15 -6 0 -9 -7 -6 -15 4 -8 2 -17 -3 -20 -5 -3
-7 -12 -3 -20 3 -8 0 -15 -7 -15 -7 0 -10 -6 -7 -14 3 -7 0 -19 -6 -25 -6 -6
-7 -11 -3 -11 5 0 3 -7 -4 -15 -7 -8 -9 -15 -5 -15 4 0 2 -7 -5 -15 -7 -8 -9
-15 -5 -15 4 0 2 -7 -5 -15 -7 -8 -9 -15 -5 -15 4 0 2 -7 -5 -15 -7 -8 -9 -15
-5 -15 4 0 2 -7 -5 -15 -7 -8 -9 -15 -5 -15 4 0 2 -6 -4 -13 -6 -8 -8 -17 -4
-20 3 -4 1 -7 -6 -7 -8 0 -11 -7 -7 -15 3 -8 1 -15 -5 -15 -6 0 -8 -4 -4 -9 3
-5 1 -12 -5 -16 -6 -4 -8 -11 -5 -16 4 -5 1 -9 -5 -9 -7 0 -10 -7 -6 -15 3 -8
1 -15 -5 -15 -6 0 -8 -4 -4 -9 3 -5 1 -12 -5 -16 -6 -4 -8 -11 -5 -16 4 -5 1
-9 -5 -9 -6 0 -9 -4 -5 -9 3 -5 1 -12 -5 -16 -6 -4 -8 -11 -5 -16 4 -5 1 -9
-5 -9 -6 0 -8 -4 -5 -10 3 -5 1 -10 -5 -10 -6 0 -9 -4 -5 -9 3 -5 1 -12 -5
-16 -6 -4 -8 -11 -5 -16 4 -5 1 -9 -5 -9 -6 0 -8 -4 -5 -10 3 -5 1 -10 -5 -10
-6 0 -9 -4 -5 -9 3 -5 1 -12 -5 -16 -6 -4 -8 -11 -5 -16 4 -5 1 -9 -5 -9 -6 0
-8 -4 -5 -10 3 -5 1 -10 -5 -10 -6 0 -8 -4 -5 -10 3 -5 1 -10 -5 -10 -6 0 -8
-4 -5 -10 3 -5 1 -10 -5 -10 -6 0 -8 -4 -5 -10 3 -5 1 -10 -5 -10 -6 0 -8 -4
-5 -10 3 -5 1 -10 -5 -10 -6 0 -8 -4 -5 -10 3 -5 1 -10 -5 -10 -6 0 -8 -4 -5
-10 3 -5 1 -10 -5 -10 -6 0 -8 -4 -5 -10 3 -5 1 -10 -4 -10 -6 0 -10 -3 -9 -7
4 -13 -24 -73 -34 -73 -5 0 -6 -4 -3 -10 3 -5 1 -10 -5 -10 -6 0 -8 -4 -5 -10
3 -5 1 -10 -5 -10 -6 0 -8 -4 -5 -10 3 -5 1 -10 -5 -10 -6 0 -8 -4 -5 -10 3
-5 1 -10 -5 -10 -6 0 -8 -4 -5 -10 3 -5 1 -10 -6 -10 -7 0 -10 -3 -6 -6 3 -3
-3 -15 -13 -27 -11 -11 -17 -24 -14 -29 3 -4 0 -8 -6 -8 -6 0 -8 -4 -5 -10 3
-5 1 -10 -5 -10 -6 0 -9 -4 -6 -9 3 -5 -1 -12 -10 -15 -8 -3 -12 -10 -9 -16 3
-5 1 -10 -5 -10 -6 0 -8 -4 -5 -10 3 -5 1 -10 -5 -10 -6 0 -9 -4 -6 -9 3 -5
-1 -12 -10 -15 -8 -3 -12 -10 -9 -16 3 -5 1 -10 -5 -10 -6 0 -9 -4 -6 -9 3 -5
-1 -12 -10 -15 -8 -3 -12 -10 -9 -16 3 -5 1 -10 -5 -10 -6 0 -8 -5 -5 -10 3
-6 -1 -13 -9 -16 -9 -3 -13 -10 -10 -15 3 -5 0 -9 -6 -9 -6 0 -8 -5 -5 -10 3
-6 -1 -13 -9 -16 -9 -3 -14 -10 -11 -14 3 -4 -2 -11 -11 -14 -8 -3 -12 -10 -9
-16 3 -5 1 -10 -4 -10 -6 0 -11 -7 -11 -15 0 -8 -5 -15 -11 -15 -5 0 -7 -5 -4
-10 3 -6 -1 -13 -9 -16 -9 -3 -14 -10 -11 -14 3 -4 -2 -11 -11 -14 -8 -3 -13
-10 -10 -15 3 -5 -1 -12 -10 -15 -8 -3 -12 -10 -9 -16 3 -6 -1 -13 -9 -16 -9
-3 -13 -10 -10 -15 3 -5 -2 -12 -10 -15 -9 -3 -13 -10 -10 -15 3 -5 -2 -12
-10 -15 -9 -3 -14 -10 -11 -15 3 -4 -4 -13 -15 -19 -11 -6 -18 -15 -15 -19 3
-5 -2 -12 -11 -15 -8 -3 -13 -10 -9 -15 3 -6 -4 -15 -15 -21 -11 -6 -18 -15
-15 -19 3 -5 -2 -12 -10 -15 -8 -3 -14 -10 -13 -15 2 -5 -6 -17 -17 -26 -11
-9 -13 -14 -5 -10 8 4 6 -1 -5 -10 -11 -9 -19 -20 -18 -25 2 -5 -6 -14 -17
-20 -11 -6 -18 -15 -15 -20 3 -5 -4 -14 -15 -20 -11 -6 -18 -15 -15 -20 3 -5
-4 -14 -15 -20 -11 -6 -19 -14 -17 -19 1 -5 -9 -18 -23 -30 -14 -13 -18 -20
-10 -16 8 4 4 -3 -10 -15 -14 -12 -25 -26 -25 -31 0 -4 -9 -15 -20 -23 -11 -8
-20 -19 -20 -24 0 -5 -11 -20 -25 -32 -14 -12 -18 -19 -10 -15 8 4 4 -3 -10
-16 -14 -12 -24 -25 -23 -30 2 -4 -11 -17 -27 -29 -17 -12 -28 -25 -25 -30 3
-5 -8 -18 -25 -30 -16 -12 -29 -25 -27 -30 1 -5 -14 -23 -33 -40 -19 -17 -28
-28 -20 -25 8 4 -5 -12 -30 -35 -25 -23 -38 -39 -30 -35 8 4 -5 -12 -30 -35
-25 -23 -38 -39 -30 -35 8 4 -7 -15 -35 -40 -27 -26 -43 -44 -35 -40 8 4 -12
-19 -45 -50 -33 -31 -53 -53 -45 -50 8 4 -21 -28 -65 -70 -44 -42 -71 -72 -60
-65 11 7 -27 -33 -85 -90 -58 -56 -94 -94 -81 -84 13 11 -121 -127 -298 -306
-178 -179 -327 -325 -333 -325 -6 0 -62 -54 -126 -120 -63 -66 -107 -109 -97
-95 10 14 -24 -18 -75 -70 -51 -52 -87 -86 -80 -75 7 11 -31 -25 -85 -80 -54
-55 -92 -91 -85 -80 7 11 -25 -18 -70 -65 -45 -47 -79 -78 -75 -70 4 8 -32
-25 -80 -75 -48 -49 -82 -81 -75 -70 7 11 -23 -16 -65 -60 -43 -44 -72 -71
-65 -60 7 11 -34 -27 -90 -85 -57 -58 -97 -96 -90 -85 7 11 -44 -38 -115 -110
-70 -71 -120 -119 -110 -105 10 14 -40 -34 -111 -106 -71 -72 -187 -189 -259
-259 -71 -71 -119 -120 -105 -110 14 10 -11 -17 -55 -60 -44 -42 -73 -74 -65
-70 8 4 -10 -17 -40 -45 -30 -28 -48 -49 -40 -45 8 4 -5 -12 -30 -35 -25 -23
-38 -39 -30 -35 8 3 -1 -8 -20 -25 -19 -17 -35 -35 -35 -40 0 -6 -14 -22 -30
-36 -17 -14 -23 -23 -15 -19 8 4 4 -3 -10 -16 -14 -12 -24 -25 -23 -30 2 -5
-8 -16 -22 -25 -14 -9 -22 -20 -20 -25 3 -4 -4 -13 -15 -19 -11 -6 -18 -15
-15 -20 3 -5 -4 -14 -15 -20 -11 -6 -18 -15 -15 -19 3 -5 -2 -12 -11 -15 -8
-3 -12 -10 -9 -16 3 -6 -1 -13 -9 -16 -9 -3 -13 -10 -10 -15 3 -5 -2 -12 -10
-15 -9 -3 -13 -10 -10 -15 3 -5 -2 -12 -10 -15 -9 -3 -13 -10 -10 -15 3 -5 -2
-12 -10 -15 -9 -3 -13 -10 -10 -15 3 -5 -2 -12 -10 -15 -9 -3 -13 -10 -10 -15
3 -5 0 -9 -6 -9 -6 0 -9 -4 -6 -9 3 -5 -1 -12 -10 -15 -8 -3 -12 -10 -9 -16 3
-5 1 -10 -5 -10 -6 0 -8 -5 -5 -10 3 -6 2 -10 -4 -10 -5 0 -17 -20 -27 -45 -9
-25 -21 -45 -26 -45 -5 0 -7 -4 -3 -9 3 -5 1 -12 -5 -16 -6 -4 -8 -11 -5 -16
4 -5 1 -9 -5 -9 -6 0 -8 -4 -5 -10 3 -5 1 -10 -5 -10 -6 0 -8 -4 -5 -10 3 -5
1 -10 -5 -10 -6 0 -9 -4 -5 -9 3 -5 1 -12 -5 -16 -6 -4 -8 -11 -5 -16 4 -5 2
-9 -4 -9 -6 0 -8 -7 -5 -15 4 -8 1 -15 -6 -15 -6 0 -9 -4 -5 -9 3 -5 1 -12 -5
-16 -6 -4 -8 -10 -5 -15 3 -5 1 -11 -4 -15 -6 -3 -8 -12 -4 -20 3 -8 0 -15 -7
-15 -7 0 -9 -8 -5 -19 3 -11 1 -22 -5 -26 -6 -3 -8 -11 -4 -16 3 -5 0 -16 -6
-24 -6 -8 -9 -23 -5 -35 4 -12 1 -27 -6 -36 -8 -10 -10 -33 -4 -82 4 -37 8
-83 9 -102 1 -19 4 -40 9 -47 4 -6 4 -18 1 -26 -3 -8 -1 -18 5 -21 6 -4 8 -13
4 -21 -3 -8 0 -15 6 -15 6 0 8 -7 5 -15 -4 -8 -1 -15 6 -15 6 0 8 -4 5 -10 -3
-5 -1 -10 5 -10 7 0 10 -7 6 -15 -3 -8 -1 -15 5 -15 6 0 7 -4 4 -10 -3 -5 -1
-10 5 -10 6 0 8 -5 5 -10 -3 -6 1 -13 9 -16 9 -3 14 -10 11 -14 -3 -4 2 -11
11 -14 8 -3 13 -10 9 -15 -3 -6 4 -15 15 -21 11 -6 18 -15 16 -19 -3 -4 11
-23 31 -42 20 -19 33 -27 29 -19 -4 8 2 4 15 -10 12 -14 25 -24 30 -23 5 2 13
-6 19 -17 6 -11 15 -18 19 -15 5 3 12 -2 15 -11 3 -8 10 -12 16 -9 5 3 10 1
10 -5 0 -6 4 -8 10 -5 5 3 10 1 10 -5 0 -6 5 -8 10 -5 5 3 10 1 10 -5 0 -6 4
-8 10 -5 5 3 10 1 10 -5 0 -6 5 -8 10 -5 6 3 10 1 10 -5 0 -6 4 -9 9 -5 5 3
12 1 16 -5 4 -6 11 -8 16 -5 5 4 9 1 9 -5 0 -6 4 -9 9 -5 5 3 12 1 16 -5 4 -6
11 -8 16 -5 5 4 9 1 9 -5 0 -7 7 -10 15 -7 8 4 17 2 20 -3 3 -5 12 -7 20 -3 8
3 15 0 15 -7 0 -7 7 -10 15 -7 8 4 17 2 21 -4 3 -6 13 -8 21 -5 9 4 22 1 29
-5 8 -6 21 -8 30 -5 9 4 23 1 30 -5 8 -6 21 -8 30 -5 9 3 21 3 27 -1 7 -5 30
-10 52 -11 22 -2 950 -6 2063 -8 l2022 -4 -4 1667 c-3 918 -8 1711 -10 1763
-10 176 -12 195 -18 210 -4 8 -7 29 -7 45 -1 61 -6 100 -14 112 -4 6 -4 18 -1
27 3 9 1 23 -6 31 -6 8 -9 19 -5 25 4 6 1 17 -5 25 -6 8 -9 19 -5 25 4 6 1 17
-5 25 -6 8 -9 19 -6 24 4 5 2 12 -3 16 -6 3 -8 12 -5 19 3 8 1 17 -5 20 -6 4
-8 13 -4 21 3 8 0 15 -7 15 -7 0 -10 7 -7 15 4 8 2 17 -4 20 -5 4 -7 10 -4 15
3 5 1 11 -5 15 -6 4 -8 10 -5 15 3 5 1 11 -5 15 -6 4 -8 11 -5 16 4 5 1 9 -5
9 -7 0 -10 7 -6 15 3 8 1 15 -5 15 -6 0 -8 4 -4 9 3 5 1 12 -5 16 -6 4 -8 11
-5 16 4 5 1 9 -5 9 -6 0 -8 5 -5 10 3 6 1 10 -5 10 -6 0 -8 5 -5 10 3 6 1 10
-5 10 -6 0 -8 5 -5 10 3 6 1 10 -5 10 -6 0 -8 5 -5 10 3 6 1 10 -5 10 -6 0 -8
5 -5 10 3 6 1 10 -5 10 -6 0 -8 5 -5 10 3 6 1 10 -5 10 -6 0 -8 5 -5 10 3 6 1
10 -5 10 -6 0 -8 5 -5 10 3 6 -1 13 -9 16 -9 3 -13 10 -10 15 3 5 0 9 -5 9 -6
0 -11 7 -11 15 0 8 -5 15 -11 15 -5 0 -8 4 -4 9 3 6 -4 15 -15 21 -11 6 -18
15 -15 20 3 5 -4 14 -15 20 -11 6 -19 15 -17 20 1 5 -11 21 -28 35 -16 15 -23
23 -15 19 8 -4 -5 14 -30 40 l-44 46 2287 0 c1309 0 2287 -4 2287 -9 0 -5 -20
-25 -45 -46 -25 -20 -43 -40 -40 -45 3 -5 -8 -18 -25 -30 -17 -12 -28 -26 -24
-31 3 -5 -2 -12 -10 -15 -9 -3 -14 -10 -11 -15 3 -4 -4 -13 -15 -19 -11 -6
-18 -15 -15 -19 3 -5 -2 -12 -11 -15 -8 -3 -12 -10 -9 -16 3 -5 1 -10 -5 -10
-6 0 -8 -5 -5 -10 3 -6 -1 -13 -9 -16 -9 -3 -13 -10 -10 -15 3 -5 0 -9 -6 -9
-6 0 -8 -4 -5 -10 3 -5 1 -10 -5 -10 -6 0 -8 -4 -5 -10 3 -5 1 -10 -5 -10 -6
0 -8 -4 -5 -10 3 -5 1 -10 -5 -10 -6 0 -8 -4 -5 -10 3 -5 1 -10 -5 -10 -6 0
-8 -4 -5 -10 3 -5 1 -10 -5 -10 -6 0 -8 -4 -5 -10 3 -5 1 -10 -5 -10 -6 0 -8
-4 -5 -10 3 -5 1 -10 -5 -10 -6 0 -9 -4 -5 -9 3 -5 1 -12 -5 -16 -6 -4 -8 -11
-5 -16 4 -5 1 -9 -5 -9 -7 0 -10 -7 -6 -15 3 -8 1 -15 -5 -15 -6 0 -8 -4 -4
-9 3 -5 1 -12 -5 -16 -6 -4 -8 -10 -5 -15 3 -5 1 -11 -4 -15 -6 -3 -8 -12 -4
-20 3 -8 0 -15 -6 -15 -6 0 -8 -7 -5 -15 4 -8 1 -15 -6 -15 -7 0 -9 -8 -5 -20
4 -12 2 -20 -5 -20 -7 0 -9 -8 -5 -20 4 -12 2 -20 -5 -20 -7 0 -9 -8 -5 -19 3
-11 1 -22 -5 -26 -6 -4 -8 -15 -5 -25 3 -10 1 -21 -5 -25 -6 -4 -8 -15 -5 -25
3 -10 1 -21 -5 -25 -7 -4 -9 -18 -6 -30 3 -13 1 -27 -5 -30 -6 -4 -7 -19 -4
-36 4 -16 3 -34 -2 -41 -4 -7 -9 -31 -10 -53 -2 -22 -5 -67 -8 -100 -3 -33 -8
-844 -11 -1803 l-5 -1742 588 2 588 3 -3 -342 -3 -343 -585 0 -586 0 6 -757
c6 -719 8 -809 21 -928 3 -27 6 -63 8 -80 1 -16 6 -35 10 -42 4 -7 5 -23 1
-36 -3 -14 -1 -28 6 -32 6 -4 8 -15 5 -25 -3 -10 -1 -21 5 -25 6 -4 8 -15 5
-25 -3 -10 -1 -21 5 -25 6 -4 8 -15 5 -26 -4 -11 -2 -19 5 -19 7 0 9 -8 5 -20
-4 -12 -2 -20 5 -20 7 0 9 -8 5 -20 -4 -12 -2 -20 5 -20 7 0 10 -7 6 -15 -3
-8 -1 -15 5 -15 6 0 9 -7 6 -15 -4 -8 -2 -17 4 -20 5 -4 7 -10 4 -15 -3 -5 -1
-11 5 -15 6 -4 8 -11 5 -16 -4 -5 -2 -9 4 -9 6 0 8 -7 5 -15 -4 -8 -1 -15 6
-15 6 0 9 -4 5 -9 -3 -5 -1 -12 5 -16 6 -4 8 -11 5 -16 -4 -5 -1 -9 5 -9 6 0
8 -5 5 -10 -3 -6 -1 -10 5 -10 6 0 8 -4 5 -10 -3 -5 -1 -10 4 -10 6 0 10 -3
10 -7 -3 -14 25 -73 34 -73 4 0 5 -4 2 -10 -3 -5 -1 -10 5 -10 6 0 8 -5 5 -10
-3 -6 -1 -10 5 -10 6 0 8 -5 5 -10 -3 -6 1 -13 9 -16 9 -3 14 -10 11 -14 -3
-4 2 -11 11 -14 8 -3 13 -10 10 -15 -3 -5 1 -12 10 -15 8 -3 13 -10 9 -15 -3
-6 4 -15 15 -21 11 -6 18 -15 15 -19 -2 -5 6 -16 20 -25 14 -9 24 -20 22 -24
-1 -4 19 -27 46 -51 26 -24 47 -49 46 -55 0 -6 -2 -7 -5 -1 -3 7 -769 8 -2284
5 -1254 -3 -2280 -2 -2280 1 0 3 18 20 40 38 22 18 38 36 35 41 -3 4 7 15 20
24 14 9 23 21 20 26 -3 5 4 14 15 20 11 6 18 15 15 21 -4 5 1 12 9 15 9 3 13
10 10 15 -3 5 2 12 10 15 9 3 13 10 10 15 -3 5 2 12 10 15 9 3 14 10 11 14 -3
4 2 11 11 14 8 3 12 10 9 16 -3 5 -1 10 5 10 6 0 8 5 5 10 -3 6 -1 10 5 10 6
0 8 5 5 10 -3 6 -1 10 6 10 7 0 10 3 6 6 -3 4 1 13 9 21 8 8 12 19 9 24 -4 5
-1 9 5 9 6 0 8 5 5 10 -3 6 -1 10 5 10 6 0 8 5 5 10 -3 5 -1 10 5 10 6 0 9 4
5 9 -3 5 -1 12 5 16 6 4 8 11 5 16 -4 5 -2 9 4 9 6 0 8 7 5 15 -4 8 -1 15 6
15 6 0 9 4 5 9 -3 5 -1 12 5 16 6 4 8 10 5 15 -3 5 -1 11 5 15 6 4 8 10 5 15
-3 5 -1 11 4 15 6 3 8 12 4 20 -3 8 0 15 7 15 7 0 10 7 7 15 -4 8 -2 17 4 21
6 3 8 12 5 20 -3 7 -1 16 5 19 5 4 7 11 3 16 -3 5 0 16 6 24 6 8 9 19 5 25 -4
6 -1 17 5 25 6 8 9 19 5 25 -4 6 -1 17 5 25 6 8 9 23 5 34 -3 10 -1 22 5 26 7
4 9 18 5 32 -3 14 -1 31 6 39 6 8 8 25 5 39 -4 14 -3 31 1 38 4 7 9 35 11 62
1 28 5 88 7 135 3 47 8 401 11 788 l5 702 -2168 2 c-2167 3 -2270 3 -2373 13
-30 3 -68 6 -85 7 -16 2 -35 6 -42 11 -6 4 -18 4 -26 1 -8 -3 -18 0 -22 6 -4
6 -15 8 -25 5 -10 -3 -21 -1 -24 4 -4 6 -13 8 -20 5 -8 -3 -17 -1 -20 5 -4 6
-13 8 -20 5 -8 -3 -17 -1 -20 5 -4 6 -13 8 -20 5 -8 -3 -17 -1 -20 5 -4 6 -13
8 -21 4 -8 -3 -15 0 -15 6 0 6 -7 8 -15 5 -8 -4 -15 -1 -15 5 0 6 -7 8 -15 5
-8 -4 -15 -1 -15 6 0 6 -4 8 -10 5 -5 -3 -10 -1 -10 5 0 7 -7 10 -15 6 -8 -3
-15 -1 -15 5 0 6 -5 7 -10 4 -6 -3 -10 -1 -10 5 0 7 -7 10 -15 6 -8 -3 -15 -1
-15 5 0 6 -4 7 -10 4 -5 -3 -10 -1 -10 5 0 6 -4 8 -10 5 -6 -3 -10 -1 -10 5 0
6 -5 8 -10 5 -5 -3 -10 -1 -10 5 0 6 -5 8 -10 5 -6 -3 -10 -1 -10 5 0 6 -4 8
-10 5 -6 -3 -10 -1 -10 5 0 6 -5 8 -10 5 -6 -3 -10 -1 -10 5 0 6 -4 9 -9 6 -5
-3 -12 1 -15 10 -3 8 -10 12 -16 9 -5 -3 -10 -1 -10 5 0 6 -4 9 -9 6 -5 -3
-12 1 -15 10 -3 8 -10 13 -15 10 -5 -3 -12 1 -15 10 -4 9 -9 14 -12 11 -4 -3
-15 4 -26 16 -11 12 -17 15 -13 7 4 -8 -2 -4 -14 10 -11 14 -23 25 -28 26 -4
0 -46 38 -93 84 -47 46 -78 80 -70 76 8 -4 4 2 -10 15 -14 12 -24 25 -23 30 2
5 -6 13 -17 19 -11 6 -18 15 -15 19 3 5 -2 12 -11 15 -8 3 -12 10 -9 16 3 5 1
10 -5 10 -6 0 -8 5 -5 10 3 6 -1 13 -9 16 -9 3 -13 10 -10 15 3 5 0 9 -6 9 -6
0 -8 4 -5 10 3 6 1 10 -5 10 -6 0 -8 4 -5 10 3 6 1 10 -5 10 -6 0 -8 5 -5 10
3 6 1 10 -5 10 -6 0 -8 4 -5 10 3 5 1 10 -5 10 -6 0 -8 5 -5 10 3 6 1 10 -5
10 -6 0 -9 4 -5 9 3 5 1 12 -5 16 -6 4 -8 11 -5 16 4 5 2 9 -4 9 -6 0 -8 7 -5
15 4 8 1 15 -5 15 -6 0 -8 7 -5 15 4 8 1 15 -5 15 -6 0 -8 7 -5 15 4 8 1 15
-6 15 -7 0 -10 7 -7 15 4 8 2 17 -4 21 -6 3 -8 12 -5 20 3 7 1 16 -5 20 -5 3
-7 14 -4 24 3 10 1 21 -5 25 -6 4 -8 15 -5 26 4 10 3 24 -2 31 -11 18 -13 63
-13 293 0 191 3 268 15 380 3 28 5 66 6 85 0 19 5 40 10 47 6 6 8 21 4 33 -4
12 -1 27 5 35 6 8 9 23 5 34 -3 10 -1 22 5 26 7 4 9 18 6 30 -3 13 -2 27 4 30
6 3 7 17 4 30 -3 12 -1 26 6 30 6 4 8 15 5 25 -3 10 -1 21 5 25 6 4 8 15 5 25
-3 10 -1 21 5 25 6 4 8 15 5 26 -4 11 -2 19 5 19 7 0 9 8 5 19 -3 11 -1 22 5
26 6 4 8 15 5 26 -4 11 -2 19 5 19 7 0 9 8 5 19 -3 11 -1 22 4 25 6 4 8 13 5
20 -3 8 -1 17 5 20 6 4 8 13 4 21 -3 8 0 15 7 15 7 0 9 8 5 20 -4 12 -2 20 5
20 7 0 10 7 7 15 -4 8 -2 17 3 20 5 3 7 12 4 19 -3 8 -1 17 5 20 6 4 8 13 4
21 -3 8 0 15 7 15 7 0 10 7 7 15 -4 8 -2 17 4 20 5 4 7 10 4 15 -3 5 -1 11 4
15 6 3 8 12 4 20 -3 8 0 15 7 15 7 0 10 7 7 15 -4 8 -2 17 4 20 5 4 7 10 4 15
-3 5 -1 11 4 15 6 3 8 12 4 20 -3 8 0 15 6 15 6 0 8 7 5 15 -4 8 -1 15 5 15 6
0 8 7 5 15 -4 8 -1 15 5 15 6 0 8 7 5 15 -4 8 -1 15 5 15 6 0 8 7 5 15 -4 8
-1 15 5 15 6 0 8 7 5 15 -4 8 -1 15 5 15 6 0 8 7 5 15 -4 8 -1 15 5 15 6 0 8
7 5 15 -4 8 -1 15 6 15 6 0 9 4 5 9 -3 5 -1 12 5 16 6 4 8 11 5 16 -4 5 -1 9
5 9 7 0 10 7 6 15 -3 8 -1 15 4 15 5 0 7 7 4 15 -4 8 -1 15 6 15 6 0 9 4 5 9
-3 5 -1 12 5 16 6 4 8 11 5 16 -4 5 -2 9 4 9 6 0 8 7 5 15 -4 8 -1 15 6 15 6
0 9 4 5 9 -3 5 -1 12 5 16 6 4 8 11 5 16 -4 5 -2 9 4 9 6 0 8 7 5 15 -4 8 -1
15 6 15 6 0 9 4 5 9 -3 5 -1 12 5 16 6 4 8 11 5 16 -4 5 -1 9 5 9 6 0 9 4 5 9
-3 5 -1 12 5 16 6 4 8 11 5 16 -4 5 -1 9 5 9 6 0 9 4 5 9 -3 5 -1 12 5 16 6 4
8 11 5 16 -4 5 -1 9 5 9 6 0 9 4 5 9 -3 5 -1 12 5 16 6 4 8 11 5 16 -4 5 -1 9
5 9 6 0 9 4 5 9 -3 5 -1 12 5 16 6 4 8 11 5 16 -4 5 -1 9 5 9 6 0 9 4 5 9 -3
5 -1 12 5 16 6 4 8 11 5 16 -4 5 -1 9 5 9 6 0 9 4 5 9 -3 5 -1 12 5 16 6 4 8
11 5 16 -4 5 -1 9 5 9 6 0 8 5 5 10 -3 6 -1 10 5 10 6 0 9 4 5 9 -3 5 -1 12 5
16 6 4 8 11 5 16 -4 5 -1 9 5 9 6 0 8 5 5 10 -3 6 -1 10 5 10 6 0 9 4 5 9 -3
5 -1 12 5 16 6 4 8 11 5 16 -4 5 -1 9 5 9 6 0 9 4 5 9 -3 5 -1 12 5 16 6 4 8
11 5 16 -4 5 -1 9 5 9 6 0 8 5 5 10 -3 5 -1 10 5 10 6 0 9 4 5 9 -3 5 -1 12 5
16 6 4 8 11 5 16 -4 5 -1 9 5 9 6 0 8 5 5 10 -3 6 -1 10 5 10 6 0 9 4 5 9 -3
5 -1 12 5 16 6 4 8 11 5 16 -4 5 -1 9 5 9 6 0 8 5 5 10 -3 6 -1 10 5 10 6 0 9
4 5 9 -3 5 -1 12 5 16 6 4 8 11 5 16 -4 5 -1 9 5 9 6 0 8 5 5 10 -3 6 -1 10 5
10 6 0 9 4 5 9 -3 5 -1 12 5 16 6 4 8 11 5 16 -4 5 -1 9 5 9 6 0 8 4 5 10 -3
5 -1 10 5 10 6 0 9 4 5 9 -3 5 -1 12 5 16 6 4 8 11 5 16 -4 5 -1 9 5 9 6 0 8
5 5 10 -3 6 -1 10 5 10 6 0 9 4 5 9 -3 5 -1 12 5 16 6 4 8 11 5 16 -4 5 -1 9
5 9 6 0 8 5 5 10 -3 6 -1 10 5 10 6 0 9 4 5 9 -3 5 -1 12 5 16 6 4 8 11 5 16
-4 5 -1 9 5 9 6 0 8 5 5 10 -3 6 -1 10 5 10 6 0 9 4 5 9 -3 5 -1 12 5 16 6 4
8 11 5 16 -4 5 -1 9 5 9 6 0 8 5 5 10 -3 6 -1 10 5 10 6 0 9 4 5 9 -3 5 -1 12
5 16 6 4 8 11 5 16 -4 5 -1 9 5 9 6 0 8 5 5 10 -3 6 -1 10 5 10 6 0 9 4 5 9
-3 5 -1 12 5 16 6 4 8 11 5 16 -4 5 -1 9 5 9 6 0 9 4 5 9 -3 5 -1 12 5 16 6 4
8 11 5 16 -4 5 -1 9 5 9 6 0 8 5 5 10 -3 6 -1 10 5 10 6 0 9 4 5 9 -3 5 -1 12
5 16 6 4 8 11 5 16 -4 5 -1 9 5 9 6 0 8 5 5 10 -3 6 -2 10 4 10 6 0 8 7 5 15
-4 8 -1 15 6 15 6 0 8 5 5 10 -3 6 -1 10 5 10 6 0 9 4 5 9 -3 5 -1 12 5 16 6
4 8 11 5 16 -4 5 -1 9 5 9 6 0 9 4 5 9 -3 5 -1 12 5 16 6 4 8 11 5 16 -4 5 -1
9 5 9 6 0 8 5 5 10 -3 6 -2 10 4 10 6 0 8 7 5 15 -4 8 -1 15 6 15 6 0 8 5 5
10 -3 6 -1 10 5 10 6 0 9 4 5 9 -3 5 -1 12 5 16 6 4 8 11 5 16 -4 5 -1 9 5 9
6 0 9 4 5 9 -3 5 -1 12 5 16 6 4 8 11 5 16 -4 5 -1 9 5 9 6 0 9 4 5 9 -3 5 -1
12 5 16 6 4 8 11 5 16 -4 5 -1 9 5 9 6 0 9 4 5 9 -3 5 -1 12 5 16 6 4 8 11 5
16 -4 5 -1 9 5 9 7 0 10 7 6 15 -3 8 -1 15 5 15 6 0 8 4 4 9 -3 5 -1 12 5 16
6 4 8 11 5 16 -4 5 -1 9 5 9 6 0 9 4 5 9 -3 5 -1 12 5 16 6 4 8 11 5 16 -4 5
-1 9 5 9 7 0 10 7 6 15 -3 8 -1 15 5 15 6 0 8 4 4 9 -3 5 -1 12 5 16 6 4 8 11
5 16 -4 5 -1 9 5 9 7 0 10 7 6 15 -3 8 -1 15 4 15 5 0 7 7 4 15 -4 8 -1 15 6
15 6 0 9 4 5 9 -3 5 -1 12 5 16 6 4 8 11 5 16 -4 5 -1 9 5 9 7 0 10 7 6 15 -3
8 -1 15 4 15 5 0 7 7 4 15 -4 8 -1 15 6 15 6 0 9 4 5 9 -3 5 -1 12 5 16 6 4 8
10 5 15 -3 5 -1 11 5 15 6 4 8 10 5 15 -3 5 -1 11 5 15 6 4 8 11 5 16 -4 5 -1
9 5 9 7 0 10 7 6 15 -3 8 -1 15 5 15 6 0 9 7 5 15 -3 8 -1 15 4 15 5 0 7 7 4
15 -4 8 -1 15 5 15 6 0 8 7 5 15 -4 8 -1 15 5 15 6 0 8 7 5 15 -4 8 -1 15 5
15 6 0 8 7 5 15 -4 8 -1 15 6 15 7 0 10 7 6 15 -3 8 -1 15 5 15 6 0 9 7 6 15
-4 8 -2 17 4 20 5 4 7 10 4 15 -3 5 -1 11 5 15 6 4 8 10 5 15 -3 5 -1 11 4 15
6 3 8 12 4 20 -3 8 0 15 7 15 7 0 10 7 6 15 -3 8 -1 15 5 15 6 0 9 7 6 15 -4
8 -2 17 4 20 5 4 7 10 4 15 -3 5 0 12 6 15 5 4 8 13 5 21 -3 7 -1 16 5 19 5 4
7 10 4 15 -3 5 -1 11 4 15 6 3 8 12 4 20 -3 8 0 15 7 15 7 0 10 7 7 15 -4 8
-2 17 3 20 5 3 7 12 3 20 -3 8 0 15 7 15 7 0 10 7 7 15 -4 8 -2 17 4 21 6 3 8
12 5 20 -3 7 -1 16 4 19 5 3 7 12 4 19 -3 8 -1 17 5 20 6 4 8 13 4 21 -3 8 0
15 7 15 7 0 9 8 5 20 -4 12 -2 20 5 20 7 0 10 7 7 15 -4 8 -2 17 4 21 6 3 8
12 5 20 -3 7 -1 16 5 20 6 3 8 12 5 20 -3 7 -1 16 5 20 5 3 7 14 4 24 -3 10
-1 21 4 24 6 4 8 13 5 20 -3 8 -1 17 5 20 6 4 8 13 5 20 -3 8 0 17 6 21 6 4 8
15 5 25 -3 10 -1 21 5 25 6 3 8 11 4 16 -3 5 0 16 6 24 6 8 9 19 5 25 -4 6 -1
17 5 25 6 8 9 19 5 25 -4 6 -1 17 5 25 6 8 9 19 5 25 -4 6 -1 17 5 25 6 8 9
19 5 25 -4 6 -1 17 5 25 6 8 9 19 5 25 -4 6 -1 17 5 25 6 8 9 19 5 25 -4 6 -1
17 5 25 6 8 9 23 5 34 -3 10 -1 22 5 26 7 4 9 18 6 30 -3 13 -1 27 4 30 6 4 8
16 5 26 -4 11 -1 26 5 34 6 8 9 23 5 34 -3 10 -1 22 5 26 7 4 9 19 5 35 -4 16
-2 31 5 35 7 4 9 19 5 35 -4 16 -2 31 5 35 6 4 8 20 4 40 -3 20 -1 35 6 40 7
4 9 18 5 36 -4 16 -3 34 2 41 4 7 9 29 10 48 2 19 5 58 8 85 8 74 23 247 30
345 11 163 14 298 14 600 0 179 -2 359 -5 400 -2 41 -6 95 -7 120 -1 25 -6 51
-10 58 -5 7 -6 25 -2 41 4 17 2 32 -5 36 -7 4 -9 19 -5 35 3 16 2 31 -4 35 -6
3 -8 17 -5 30 3 12 1 26 -6 30 -6 4 -8 15 -5 25 3 10 1 21 -5 25 -6 4 -8 15
-5 25 3 10 1 21 -5 25 -6 4 -8 15 -5 25 3 10 1 21 -4 24 -6 4 -8 13 -5 20 3 8
1 17 -5 20 -6 4 -8 13 -5 20 3 8 1 17 -5 20 -6 4 -8 13 -4 21 3 8 0 15 -7 15
-7 0 -10 7 -7 15 4 8 2 17 -3 20 -5 3 -7 12 -3 20 3 8 0 15 -7 15 -7 0 -10 7
-6 15 3 8 1 15 -5 15 -6 0 -9 7 -5 15 3 8 1 15 -5 15 -6 0 -9 7 -5 15 3 8 1
15 -4 15 -5 0 -7 7 -4 15 4 8 1 15 -6 15 -6 0 -9 4 -5 9 3 5 1 12 -5 16 -6 4
-8 11 -5 16 4 5 1 9 -5 9 -7 0 -10 7 -6 15 3 8 1 15 -5 15 -6 0 -7 5 -4 10 3
6 1 10 -5 10 -7 0 -10 7 -6 15 3 8 1 15 -5 15 -6 0 -7 5 -4 10 3 6 1 10 -5 10
-6 0 -9 4 -5 9 3 5 1 12 -5 16 -6 4 -8 11 -5 16 4 5 1 9 -5 9 -6 0 -8 5 -5 10
3 6 1 10 -5 10 -6 0 -8 5 -5 10 3 6 1 10 -5 10 -6 0 -8 5 -5 10 3 6 1 10 -5
10 -6 0 -8 5 -5 10 3 6 1 10 -5 10 -6 0 -8 5 -5 10 3 6 1 10 -5 10 -6 0 -8 5
-5 10 3 6 1 10 -5 10 -6 0 -8 5 -5 10 3 6 1 10 -5 10 -6 0 -8 5 -5 10 3 6 -1
13 -9 16 -9 3 -13 10 -10 15 3 5 0 9 -6 9 -6 0 -8 5 -5 10 3 6 1 10 -5 10 -6
0 -8 5 -5 10 3 6 -1 13 -9 16 -9 3 -13 10 -10 15 3 5 0 9 -6 9 -6 0 -9 4 -6 9
3 5 -1 12 -10 15 -8 3 -12 10 -9 16 3 5 1 10 -5 10 -6 0 -8 5 -5 10 3 6 -1 13
-9 16 -9 3 -14 10 -11 14 3 4 -2 11 -11 14 -8 3 -13 10 -10 15 3 5 -1 12 -10
15 -8 3 -13 10 -10 15 3 5 -1 12 -10 15 -8 3 -13 10 -10 15 3 5 -1 12 -10 15
-8 3 -13 10 -10 15 3 5 -1 12 -10 15 -8 3 -13 10 -9 15 3 6 -4 15 -15 21 -11
6 -18 15 -15 20 3 5 -4 14 -15 20 -11 6 -18 15 -15 21 4 5 -1 12 -9 15 -9 3
-14 10 -11 14 3 4 -7 15 -20 24 -14 9 -23 21 -20 26 3 5 -4 14 -15 20 -11 6
-19 14 -17 19 1 5 -9 18 -23 30 -14 13 -18 19 -10 15 13 -7 13 -5 1 9 -13 16
107 17 1925 20 1067 1 1965 3 1996 5 33 1 60 -3 64 -9z"/>
<path d="M5964 10608 l-19 -23 23 19 c21 18 27 26 19 26 -2 0 -12 -10 -23 -22z"/>
</g>
</svg>
