<?xml version="1.0" standalone="no"?>
<!DOCTYPE svg PUBLIC "-//W3C//DTD SVG 20010904//EN"
 "http://www.w3.org/TR/2001/REC-SVG-20010904/DTD/svg10.dtd">
<svg version="1.0" xmlns="http://www.w3.org/2000/svg"
 width="1170.000000pt" height="1170.000000pt" viewBox="0 0 1170.000000 1170.000000"
 preserveAspectRatio="xMidYMid meet">

<g transform="translate(0.000000,1170.000000) scale(0.100000,-0.100000)"
fill="#000000" stroke="none">
<path d="M0 5850 l0 -5850 5850 0 5850 0 0 5850 0 5850 -5850 0 -5850 0 0
-5850z m5539 4175 c90 -18 187 -57 251 -104 24 -17 49 -31 56 -31 8 0 36 13
62 30 160 98 325 135 495 111 269 -38 484 -226 581 -505 l21 -61 3 -3998 2
-3997 -267 2 -268 3 -5 3975 c-5 3730 -6 3977 -22 4006 -69 127 -242 123 -308
-6 -20 -39 -20 -65 -20 -4010 l0 -3970 -270 0 -270 0 0 3961 c0 2932 -3 3972
-11 4000 -18 58 -77 110 -132 116 -25 3 -57 3 -71 -1 -36 -9 -96 -64 -112
-103 -12 -27 -14 -691 -14 -4003 l0 -3970 -275 0 -275 0 0 3968 c0 4428 -7
4034 74 4198 142 286 464 448 775 389z m2666 0 c57 -10 109 -28 183 -66 171
-86 292 -226 360 -417 l27 -77 3 -1567 3 -1568 -271 0 -270 0 -2 1548 c-3
1463 -4 1549 -21 1583 -26 52 -72 82 -132 87 -79 6 -148 -40 -174 -117 -16
-49 -16 -7343 0 -7392 26 -78 84 -113 175 -107 54 3 69 9 95 33 63 60 59 -65
59 1810 l0 1715 -85 0 -85 0 0 250 0 250 355 0 355 0 -2 -1992 -3 -1993 -27
-80 c-76 -223 -237 -384 -465 -467 -90 -32 -274 -37 -384 -9 -112 28 -215 81
-296 153 -86 75 -136 143 -184 243 -75 160 -69 -183 -69 3897 0 4101 -7 3728
77 3898 81 164 227 290 411 357 119 43 232 52 367 28z m-4432 -50 c207 -44
388 -182 481 -368 88 -176 80 -8 84 -1817 2 -1044 -1 -1632 -7 -1682 -13 -97
-50 -203 -102 -293 -39 -68 -40 -71 -24 -95 33 -51 95 -189 112 -251 17 -60
18 -169 18 -1724 0 -1877 7 -1713 -81 -1886 -73 -141 -190 -256 -331 -321
-120 -57 -151 -60 -600 -65 l-413 -5 0 4261 0 4261 398 0 c306 0 412 -4 465
-15z m5830 -7469 c94 -18 179 -61 248 -125 l54 -49 -60 -55 c-33 -30 -74 -66
-92 -81 l-32 -27 -54 44 c-66 54 -125 71 -216 65 -115 -8 -202 -75 -237 -181
-25 -74 -16 -188 20 -252 87 -161 318 -188 454 -54 l33 32 42 -39 c23 -21 63
-59 89 -84 l48 -44 -43 -44 c-90 -92 -227 -142 -393 -142 -357 0 -590 259
-547 606 14 114 56 199 142 285 134 134 329 186 544 145z m934 0 c194 -35 353
-179 409 -371 19 -69 22 -195 5 -268 -39 -165 -173 -310 -342 -367 -89 -31
-269 -39 -359 -16 -111 28 -186 70 -259 143 -248 248 -184 663 127 826 118 62
265 81 419 53z m633 -733 c84 -49 92 -200 15 -261 -48 -38 -99 -46 -162 -26
-60 19 -97 60 -109 121 -15 75 33 162 100 183 42 13 120 5 156 -17z"/>
<path d="M3460 7734 l0 -1767 109 5 c116 5 136 12 185 65 14 15 30 50 36 78 8
35 10 534 8 1660 -3 1603 -3 1610 -24 1645 -11 19 -35 45 -54 57 -29 21 -45
23 -146 23 l-114 0 0 -1766z"/>
<path d="M3460 3724 l0 -1766 114 4 c111 3 115 4 153 34 78 63 72 -74 72 1720
1 1750 4 1670 -56 1726 -46 42 -67 48 -177 48 l-106 0 0 -1766z"/>
<path d="M10307 2266 c-108 -39 -177 -144 -177 -270 0 -167 115 -291 270 -290
115 1 196 51 242 150 54 116 34 266 -48 348 -68 68 -193 95 -287 62z"/>
</g>
</svg>
